<?xml version="1.0" standalone="no"?>
<!DOCTYPE svg PUBLIC "-//W3C//DTD SVG 20010904//EN"
 "http://www.w3.org/TR/2001/REC-SVG-20010904/DTD/svg10.dtd">
<svg version="1.0" xmlns="http://www.w3.org/2000/svg"
 width="225.000000pt" height="225.000000pt" viewBox="0 0 225.000000 225.000000"
 preserveAspectRatio="xMidYMid meet">

<g transform="translate(0.000000,225.000000) scale(0.100000,-0.100000)"
fill="#000000" stroke="none">
<path d="M945 2096 c-377 -73 -675 -352 -777 -726 -19 -72 -23 -109 -23 -245
0 -136 4 -173 23 -245 95 -350 363 -618 712 -711 123 -33 356 -34 484 -1 172
43 328 132 457 261 129 129 218 285 261 457 33 128 32 361 -1 484 -93 347
-362 617 -706 710 -103 28 -326 36 -430 16z m385 -142 c78 -20 210 -79 277
-125 164 -112 297 -304 349 -504 25 -97 25 -303 0 -400 -67 -257 -239 -463
-478 -574 -127 -59 -202 -75 -353 -75 -151 0 -226 16 -352 74 -195 91 -332
227 -422 422 -59 127 -75 202 -75 353 0 151 16 226 75 353 120 259 342 433
624 488 88 17 265 11 355 -12z"/>
<path d="M667 1573 c-10 -9 -9 -891 1 -897 7 -4 551 400 590 439 12 10 -35 50
-275 230 -158 120 -293 222 -299 227 -6 4 -14 5 -17 1z"/>
<path d="M1370 1125 l0 -456 108 3 107 3 0 450 0 450 -107 3 -108 3 0 -456z"/>
</g>
</svg>
