<?xml version="1.0" standalone="no"?>
<!DOCTYPE svg PUBLIC "-//W3C//DTD SVG 20010904//EN"
 "http://www.w3.org/TR/2001/REC-SVG-20010904/DTD/svg10.dtd">
<svg version="1.0" xmlns="http://www.w3.org/2000/svg"
 width="225.000000pt" height="225.000000pt" viewBox="0 0 225.000000 225.000000"
 preserveAspectRatio="xMidYMid meet">

<g transform="translate(0.000000,225.000000) scale(0.100000,-0.100000)"
fill="#000000" stroke="none">
<path d="M982 2239 c-608 -79 -1043 -632 -973 -1238 80 -685 739 -1136 1404
-961 525 139 885 652 829 1184 -32 295 -139 517 -348 716 -245 233 -578 343
-912 299z m288 -179 c475 -74 821 -502 797 -985 -12 -234 -97 -428 -263 -605
-187 -198 -453 -302 -733 -287 -133 7 -241 35 -356 91 -249 122 -433 344 -507
614 -18 64 -21 105 -22 242 0 151 3 173 27 253 77 252 242 455 469 576 176 95
391 131 588 101z"/>
<path d="M847 1650 c-15 -12 -31 -38 -37 -58 -13 -50 -13 -864 0 -914 6 -20
22 -46 37 -58 32 -25 99 -27 132 -4 49 35 51 51 51 519 0 468 -2 484 -51 519
-33 23 -100 21 -132 -4z"/>
<path d="M1297 1650 c-15 -12 -31 -38 -37 -58 -13 -50 -13 -864 0 -914 6 -20
22 -46 37 -58 32 -25 99 -27 132 -4 49 35 51 51 51 519 0 468 -2 484 -51 519
-33 23 -100 21 -132 -4z"/>
</g>
</svg>
