<?xml version="1.0" standalone="no"?>
<!DOCTYPE svg PUBLIC "-//W3C//DTD SVG 20010904//EN"
 "http://www.w3.org/TR/2001/REC-SVG-20010904/DTD/svg10.dtd">
<svg version="1.0" xmlns="http://www.w3.org/2000/svg"
 width="225.000000pt" height="225.000000pt" viewBox="0 0 225.000000 225.000000"
 preserveAspectRatio="xMidYMid meet">

<g transform="translate(0.000000,225.000000) scale(0.100000,-0.100000)"
fill="#000000" stroke="none">
<path d="M975 2239 c-589 -74 -1027 -624 -967 -1217 68 -680 696 -1138 1362
-992 545 119 927 642 871 1194 -29 294 -137 516 -347 716 -247 236 -574 342
-919 299z m410 -213 c337 -101 586 -372 657 -716 28 -134 21 -318 -16 -443
-94 -316 -336 -555 -657 -647 -95 -28 -289 -38 -395 -21 -239 39 -457 174
-609 375 -52 70 -110 190 -142 293 -24 80 -27 103 -27 258 -1 194 8 238 79
392 52 110 87 163 167 249 134 143 295 233 499 279 45 10 107 14 209 11 122
-3 160 -8 235 -30z"/>
<path d="M960 1500 c-19 -19 -20 -33 -20 -378 0 -344 1 -360 20 -377 11 -10
29 -16 42 -13 23 5 484 334 508 363 29 35 4 60 -212 218 -322 233 -302 223
-338 187z"/>
</g>
</svg>
