<?xml version="1.0" standalone="no"?>
<!DOCTYPE svg PUBLIC "-//W3C//DTD SVG 20010904//EN"
 "http://www.w3.org/TR/2001/REC-SVG-20010904/DTD/svg10.dtd">
<svg version="1.0" xmlns="http://www.w3.org/2000/svg"
 width="225.000000pt" height="225.000000pt" viewBox="0 0 225.000000 225.000000"
 preserveAspectRatio="xMidYMid meet">

<g transform="translate(0.000000,225.000000) scale(0.100000,-0.100000)"
fill="#000000" stroke="none">
<path d="M945 2096 c-377 -73 -675 -352 -777 -726 -19 -72 -23 -109 -23 -245
0 -136 4 -173 23 -245 95 -350 362 -617 712 -712 72 -19 109 -23 245 -23 136
0 173 4 245 23 350 95 617 362 712 712 19 72 23 109 23 245 0 136 -4 173 -23
245 -95 348 -363 617 -707 710 -103 28 -326 36 -430 16z m382 -142 c80 -19
211 -78 280 -125 164 -112 298 -305 349 -504 25 -97 25 -303 0 -400 -66 -256
-239 -463 -478 -574 -126 -59 -201 -75 -353 -75 -151 0 -227 16 -352 74 -195
91 -332 227 -422 422 -59 126 -75 201 -75 353 0 152 16 227 75 353 122 263
363 447 644 492 82 12 249 5 332 -16z"/>
<path d="M665 1568 c-3 -7 -4 -211 -3 -453 l3 -440 108 -3 107 -3 0 456 0 455
-105 0 c-75 0 -107 -4 -110 -12z"/>
<path d="M1290 1364 c-157 -119 -291 -221 -298 -229 -12 -10 36 -50 284 -238
164 -124 302 -223 306 -221 10 7 10 891 0 898 -4 2 -136 -92 -292 -210z"/>
</g>
</svg>
